{
	"asset":{
		"generator":"Khronos glTF Blender I/O v5.2.40",
		"version":"2.0"
	},
	"scene":0,
	"scenes":[
		{
			"name":"Scene",
			"nodes":[
				0
			]
		}
	],
	"nodes":[
		{
			"mesh":0,
			"name":"Scythe",
			"rotation":[
				0,
				0,
				0.4914049506187439,
				0.8709312081336975
			],
			"scale":[
				0.010309158824384212,
				0.01003265380859375,
				0.009870298206806183
			],
			"translation":[
				7.101125240325928,
				4.049522876739502,
				0
			]
		}
	],
	"materials":[
		{
			"doubleSided":true,
			"name":"Top Blade",
			"pbrMetallicRoughness":{
				"baseColorFactor":[
					0.32801353931427,
					0.32801353931427,
					0.32801353931427,
					1
				],
				"metallicFactor":0.8066298365592957,
				"roughnessFactor":0.29558008909225464
			}
		},
		{
			"doubleSided":true,
			"name":"Bottom Blade",
			"pbrMetallicRoughness":{
				"baseColorFactor":[
					0.030713459476828575,
					0.030713459476828575,
					0.030713459476828575,
					1
				],
				"metallicFactor":0.8066298365592957,
				"roughnessFactor":0.29558008909225464
			}
		},
		{
			"doubleSided":true,
			"name":"Handle.001",
			"pbrMetallicRoughness":{
				"baseColorFactor":[
					0.02121901698410511,
					0.013702084310352802,
					0.009721221402287483,
					1
				],
				"metallicFactor":0.19889502227306366,
				"roughnessFactor":0.8922652006149292
			}
		},
		{
			"doubleSided":true,
			"name":"Branch",
			"pbrMetallicRoughness":{
				"baseColorFactor":[
					0.030354395508766174,
					0.019146976992487907,
					0.013291524723172188,
					1
				],
				"metallicFactor":0.049723755568265915,
				"roughnessFactor":0.9254143238067627
			}
		}
	],
	"meshes":[
		{
			"name":"Cube.005",
			"primitives":[
				{
					"attributes":{
						"POSITION":0,
						"NORMAL":1,
						"TEXCOORD_0":2
					},
					"indices":3,
					"material":0
				},
				{
					"attributes":{
						"POSITION":4,
						"NORMAL":5,
						"TEXCOORD_0":6
					},
					"indices":7,
					"material":1
				},
				{
					"attributes":{
						"POSITION":8,
						"NORMAL":9,
						"TEXCOORD_0":10
					},
					"indices":11,
					"material":2
				},
				{
					"attributes":{
						"POSITION":12,
						"NORMAL":13,
						"TEXCOORD_0":14
					},
					"indices":15,
					"material":3
				}
			]
		}
	],
	"accessors":[
		{
			"bufferView":0,
			"componentType":5126,
			"count":334,
			"max":[
				223.90353393554688,
				2.373401641845703,
				2.378230333328247
			],
			"min":[
				-1.1283645629882812,
				-188.58641052246094,
				-2.378232002258301
			],
			"type":"VEC3"
		},
		{
			"bufferView":1,
			"componentType":5126,
			"count":334,
			"type":"VEC3"
		},
		{
			"bufferView":2,
			"componentType":5126,
			"count":334,
			"type":"VEC2"
		},
		{
			"bufferView":3,
			"componentType":5123,
			"count":486,
			"type":"SCALAR"
		},
		{
			"bufferView":4,
			"componentType":5126,
			"count":280,
			"max":[
				212.734619140625,
				-51.842185974121094,
				2.2241547107696533
			],
			"min":[
				112.43667602539062,
				-279.63214111328125,
				-2.2241342067718506
			],
			"type":"VEC3"
		},
		{
			"bufferView":5,
			"componentType":5126,
			"count":280,
			"type":"VEC3"
		},
		{
			"bufferView":6,
			"componentType":5126,
			"count":280,
			"type":"VEC2"
		},
		{
			"bufferView":7,
			"componentType":5123,
			"count":414,
			"type":"SCALAR"
		},
		{
			"bufferView":8,
			"componentType":5126,
			"count":1172,
			"max":[
				167.8408966064453,
				-152.36619567871094,
				10.335827827453613
			],
			"min":[
				-226.58221435546875,
				-399.62579345703125,
				-10.336024284362793
			],
			"type":"VEC3"
		},
		{
			"bufferView":9,
			"componentType":5126,
			"count":1172,
			"type":"VEC3"
		},
		{
			"bufferView":10,
			"componentType":5126,
			"count":1172,
			"type":"VEC2"
		},
		{
			"bufferView":11,
			"componentType":5123,
			"count":1752,
			"type":"SCALAR"
		},
		{
			"bufferView":12,
			"componentType":5126,
			"count":2340,
			"max":[
				181.0286407470703,
				-169.64479064941406,
				6.269322872161865
			],
			"min":[
				81.8909912109375,
				-244.29722595214844,
				-10.452017784118652
			],
			"type":"VEC3"
		},
		{
			"bufferView":13,
			"componentType":5126,
			"count":2340,
			"type":"VEC3"
		},
		{
			"bufferView":14,
			"componentType":5126,
			"count":2340,
			"type":"VEC2"
		},
		{
			"bufferView":15,
			"componentType":5123,
			"count":12528,
			"type":"SCALAR"
		}
	],
	"bufferViews":[
		{
			"buffer":0,
			"byteLength":4008,
			"byteOffset":0,
			"target":34962
		},
		{
			"buffer":0,
			"byteLength":4008,
			"byteOffset":4008,
			"target":34962
		},
		{
			"buffer":0,
			"byteLength":2672,
			"byteOffset":8016,
			"target":34962
		},
		{
			"buffer":0,
			"byteLength":972,
			"byteOffset":10688,
			"target":34963
		},
		{
			"buffer":0,
			"byteLength":3360,
			"byteOffset":11660,
			"target":34962
		},
		{
			"buffer":0,
			"byteLength":3360,
			"byteOffset":15020,
			"target":34962
		},
		{
			"buffer":0,
			"byteLength":2240,
			"byteOffset":18380,
			"target":34962
		},
		{
			"buffer":0,
			"byteLength":828,
			"byteOffset":20620,
			"target":34963
		},
		{
			"buffer":0,
			"byteLength":14064,
			"byteOffset":21448,
			"target":34962
		},
		{
			"buffer":0,
			"byteLength":14064,
			"byteOffset":35512,
			"target":34962
		},
		{
			"buffer":0,
			"byteLength":9376,
			"byteOffset":49576,
			"target":34962
		},
		{
			"buffer":0,
			"byteLength":3504,
			"byteOffset":58952,
			"target":34963
		},
		{
			"buffer":0,
			"byteLength":28080,
			"byteOffset":62456,
			"target":34962
		},
		{
			"buffer":0,
			"byteLength":28080,
			"byteOffset":90536,
			"target":34962
		},
		{
			"buffer":0,
			"byteLength":18720,
			"byteOffset":118616,
			"target":34962
		},
		{
			"buffer":0,
			"byteLength":25056,
			"byteOffset":137336,
			"target":34963
		}
	],
	"buffers":[
		{
			"byteLength":162392,
			"uri":"scythe.bin"
		}
	]
}
